<svg width="24" height="24" viewBox="0 0 24 24" fill="none" xmlns="http://www.w3.org/2000/svg">
<path d="M11.4948 21.75C5.85654 21.75 1.26608 17.15 1.26608 11.5C1.26608 5.85 5.85654 1.25 11.4948 1.25C17.1331 1.25 21.7236 5.85 21.7236 11.5C21.7236 17.15 17.1331 21.75 11.4948 21.75ZM11.4948 2.75C6.67484 2.75 2.76297 6.68 2.76297 11.5C2.76297 16.32 6.67484 20.25 11.4948 20.25C16.3148 20.25 20.2267 16.32 20.2267 11.5C20.2267 6.68 16.3148 2.75 11.4948 2.75Z" fill="#757575"/>
<path d="M21.9734 22.7499C21.7838 22.7499 21.5942 22.6799 21.4445 22.5299L19.4487 20.5299C19.1593 20.2399 19.1593 19.7599 19.4487 19.4699C19.7381 19.1799 20.2171 19.1799 20.5065 19.4699L22.5023 21.4699C22.7917 21.7599 22.7917 22.2399 22.5023 22.5299C22.3526 22.6799 22.163 22.7499 21.9734 22.7499Z" fill="#757575"/>
</svg>
